<svg width="8333" height="6250" viewBox="0 0 256 384" fill="none" xmlns="http://www.w3.org/2000/svg">
<rect width="256" height="384" fill="#D9D9D9"/>
<g clip-path="url(#clip0_102_1445)">
<path d="M218.125 110.978L209.022 101.875L37.875 273.022L46.9783 282.125L59.8533 269.25H192.375C195.788 269.245 199.06 267.887 201.474 265.474C203.887 263.06 205.245 259.788 205.25 256.375V123.853L218.125 110.978ZM192.375 256.375H72.7283L122.895 206.208L138.209 221.52C140.623 223.935 143.898 225.291 147.312 225.291C150.727 225.291 154.002 223.935 156.416 221.52L166.625 211.312L192.375 237.045V256.375ZM192.375 218.833L175.729 202.186C173.314 199.772 170.04 198.415 166.625 198.415C163.21 198.415 159.936 199.772 157.521 202.186L147.312 212.395L132.011 197.093L192.375 136.728V218.833Z" fill="black"/>
<path d="M63.625 230.625V211.312L95.8125 179.147L104.653 187.988L113.768 178.872L104.916 170.02C102.502 167.606 99.2271 166.25 95.8125 166.25C92.3979 166.25 89.1231 167.606 86.7086 170.02L63.625 193.105V127.625H166.625V114.75H63.625C60.2114 114.753 56.9386 116.111 54.5248 118.525C52.111 120.939 50.7534 124.211 50.75 127.625V230.625H63.625Z" fill="black"/>
</g>
<defs>
<clipPath id="clip0_102_1445">
<rect width="206" height="206" fill="white" transform="translate(25 89)"/>
</clipPath>
</defs>
</svg>
