<svg
	width="250"
	height="250"
	viewBox="0 0 250 250"
	fill="none"
	xmlns="http://www.w3.org/2000/svg"
>
	<path d="M250 0H0V250H250V0Z" fill="#D9D9D9" />
	<path
		d="M183.717 72.2321L177.791 66.3057L66.3789 177.729L72.3049 183.656L80.6862 175.274H166.954C169.176 175.271 171.306 174.386 172.877 172.815C174.448 171.244 175.332 169.114 175.335 166.892V80.6143L183.717 72.2321ZM166.954 166.892H89.0674L121.725 134.231L131.694 144.2C133.265 145.772 135.397 146.655 137.619 146.655C139.842 146.655 141.974 145.772 143.546 144.2L150.192 137.554L166.954 154.307V166.892ZM166.954 142.45L156.118 131.612C154.546 130.041 152.415 129.157 150.192 129.157C147.969 129.157 145.837 130.041 144.265 131.612L137.619 138.259L127.659 128.297L166.954 88.9964V142.45Z"
		fill="black"
	/>
	<path
		d="M83.1415 150.127V137.553L104.095 116.613L109.85 122.368L115.783 116.434L110.021 110.671C108.449 109.099 106.318 108.216 104.095 108.216C101.872 108.216 99.7401 109.099 98.1683 110.671L83.1415 125.7V83.0697H150.192V74.6875H83.1415C80.9194 74.6895 78.7889 75.5736 77.2175 77.1452C75.6462 78.7168 74.7625 80.847 74.7603 83.0697V150.127H83.1415Z"
		fill="black"
	/>
</svg>